<svg xmlns="http://www.w3.org/2000/svg" viewBox="0 0 892 320" width="892" height="320">
  <g>
      <path d="M36.399658203125 708Q60.599853515625 707 100.00018310546875 706.0Q139.4005126953125 705 178.40087890625 705Q226.6009521484375 705 270.801025390625 706.0Q315.0010986328125 707 333.401123046875 707Q466.8018798828125 707 532.6022338867188 652.0Q598.402587890625 597 598.402587890625 510Q598.402587890625 474 585.2025146484375 434.5Q572.00244140625 395 539.9022827148438 361.5Q507.8021240234375 328 452.20184326171875 307.0Q396.6015625 286 311.401123046875 286H211.40087890625V306H301.401123046875Q364.400634765625 306 397.5003662109375 333.0Q430.60009765625 360 442.5 404.0Q454.39990234375 448 454.39990234375 499Q454.39990234375 594 423.30029296875 641.0Q392.20068359375 688 316.401611328125 688Q275.201904296875 688 262.802001953125 671.0Q250.402099609375 654 250.402099609375 602V110.000244140625Q250.402099609375 72.0001220703125 258.3021240234375 53.2000732421875Q266.2021484375 34.4000244140625 289.002197265625 28.4000244140625Q311.80224609375 22.4000244140625 355.40234375 21.2000732421875V0Q326.2021484375 1.5999755859375 280.2017822265625 2.29998779296875Q234.201416015625 3 184.8009033203125 3Q143.000732421875 3 104.200439453125 2.29998779296875Q65.400146484375 1.5999755859375 36.399658203125 0V20Q69.1995849609375 22 85.69952392578125 28.0Q102.199462890625 34 107.7994384765625 52.0Q113.3994140625 70 113.3994140625 106V602Q113.3994140625 639 107.7994384765625 656.5Q102.199462890625 674 85.49951171875 680.5Q68.799560546875 687 36.399658203125 688Z" fill="#1F5C3D" transform="translate(40.0,198.4) translate(0.00,0.00) scale(0.20000,-0.20000)"/>
      <path d="M164.9996337890625 -7Q121.5994873046875 -7 91.5994873046875 9.50006103515625Q61.5994873046875 26.0001220703125 46.8995361328125 54.400146484375Q32.1995849609375 82.8001708984375 32.1995849609375 117.800048828125Q32.1995849609375 161 52.09954833984375 188.39996337890625Q71.99951171875 215.7999267578125 103.39947509765625 232.59991455078125Q134.7994384765625 249.39990234375 169.69940185546875 260.69989013671875Q204.599365234375 271.9998779296875 235.99932861328125 282.4998779296875Q267.3992919921875 292.9998779296875 287.29925537109375 307.19989013671875Q307.19921875 321.39990234375 307.19921875 344.39990234375V417.2005615234375Q307.19921875 448.7999267578125 297.4993896484375 469.599853515625Q287.799560546875 490.3997802734375 269.19970703125 500.49993896484375Q250.599853515625 510.60009765625 222.999755859375 510.60009765625Q201.5999755859375 510.60009765625 178.7003173828125 504.60015869140625Q155.8006591796875 498.6002197265625 141.2008056640625 482.2005615234375Q166.6011962890625 474.600341796875 181.4012451171875 455.60015869140625Q196.2012939453125 436.5999755859375 196.2012939453125 410.39990234375Q196.2012939453125 379.3995361328125 175.4010009765625 361.49932861328125Q154.6007080078125 343.59912109375 124.400390625 343.59912109375Q91.0001220703125 343.59912109375 74.09991455078125 364.69927978515625Q57.19970703125 385.7994384765625 57.19970703125 414.3997802734375Q57.19970703125 442.39990234375 71.19976806640625 460.60003662109375Q85.1998291015625 478.8001708984375 109.60009765625 494.4002685546875Q135.4002685546875 510.80029296875 174.10040283203125 520.7001953125Q212.800537109375 530.60009765625 258.800537109375 530.60009765625Q303.000732421875 530.60009765625 337.2010498046875 521.10009765625Q371.4013671875 511.60009765625 394.8016357421875 488.3997802734375Q418.801513671875 465.1998291015625 426.00146484375 431.29986572265625Q433.201416015625 397.39990234375 433.201416015625 347.7998046875V73.800048828125Q433.201416015625 48.800048828125 439.101318359375 38.60009765625Q445.001220703125 28.400146484375 458.2010498046875 28.400146484375Q468.0009765625 28.400146484375 477.00091552734375 33.400146484375Q486.0008544921875 38.400146484375 497.20068359375 47L507.8006591796875 30Q486.400634765625 12.7999267578125 462.00030517578125 2.89996337890625Q437.5999755859375 -7 403.9998779296875 -7Q369.3995361328125 -7 348.59942626953125 3.20001220703125Q327.79931640625 13.4000244140625 318.29931640625 32.0999755859375Q308.79931640625 50.7999267578125 308.3992919921875 76.7996826171875Q283.7994384765625 36.5999755859375 248.6995849609375 14.79998779296875Q213.5997314453125 -7 164.9996337890625 -7ZM224.60107421875 49.0009765625Q248.800537109375 49.0009765625 269.300048828125 61.80059814453125Q289.799560546875 74.6002197265625 307.19921875 101.3995361328125V303.39990234375Q297.1993408203125 288 278.79962158203125 276.0999755859375Q260.39990234375 264.199951171875 239.4002685546875 252.09991455078125Q218.400634765625 239.9998779296875 199.5009765625 224.69989013671875Q180.601318359375 209.39990234375 168.40155029296875 186.60003662109375Q156.2017822265625 163.8001708984375 156.2017822265625 129.4005126953125Q156.2017822265625 90.2005615234375 174.901611328125 69.60076904296875Q193.6014404296875 49.0009765625 224.60107421875 49.0009765625Z" fill="#1F5C3D" transform="translate(40.0,198.4) translate(124.40,0.00) scale(0.20000,-0.20000)"/>
      <path d="M214.801513671875 681V516.0001220703125H342.80029296875V496.0001220703125H214.801513671875V97.7994384765625Q214.801513671875 62.0001220703125 227.80126953125 47.20037841796875Q240.801025390625 32.400634765625 265.20068359375 32.400634765625Q287.6002197265625 32.400634765625 306.800048828125 49.7001953125Q325.9998779296875 66.999755859375 340.7998046875 108.19873046875L358.7996826171875 100.3985595703125Q344.3994140625 51.1990966796875 312.8992919921875 18.59954833984375Q281.399169921875 -14 223.9993896484375 -14Q190.3994140625 -14 166.59930419921875 -5.5Q142.7991943359375 3 125.7991943359375 19.4000244140625Q103.7991943359375 42 96.29925537109375 74.20001220703125Q88.79931640625 106.4000244140625 88.79931640625 159V496.0001220703125H0.7998046875V516.0001220703125H88.79931640625V654.999267578125Q125 655.5992431640625 156.20050048828125 661.5994262695312Q187.4010009765625 667.599609375 214.801513671875 681Z" fill="#1F5C3D" transform="translate(40.0,198.4) translate(226.60,0.00) scale(0.20000,-0.20000)"/>
      <path d="M506.4007568359375 516.60009765625V496.2000732421875Q487.4007568359375 492.199951171875 470.80072021484375 474.99981689453125Q454.20068359375 457.7996826171875 439.0006103515625 415.3994140625L290.6015625 8.600830078125L260.000732421875 -38.2020263671875L53.599365234375 439.60009765625Q35.3994140625 478.2000732421875 18.29949951171875 486.90008544921875Q1.1995849609375 495.60009765625 -10.400390625 495.60009765625V516.60009765625Q18.800048828125 513.60009765625 50.4005126953125 512.10009765625Q82.0009765625 510.60009765625 113.6011962890625 510.60009765625Q151.0015869140625 510.60009765625 185.30157470703125 512.60009765625Q219.6015625 514.60009765625 249.6015625 516.60009765625V495.60009765625Q227.4017333984375 495.60009765625 209.30181884765625 492.70013427734375Q191.201904296875 489.8001708984375 185.40185546875 476.3004150390625Q179.601806640625 462.8006591796875 193.0015869140625 430.001220703125L318.001708984375 125.4012451171875L310.0015869140625 121.0010986328125L397.5999755859375 358.597412109375Q414.6002197265625 405.5982666015625 411.7001953125 434.89886474609375Q408.8001708984375 464.199462890625 390.0001220703125 479.19976806640625Q371.2000732421875 494.2000732421875 337.6002197265625 496.2000732421875V516.60009765625Q354.0001220703125 515.60009765625 369.80029296875 514.9000854492188Q385.6004638671875 514.2000732421875 400.900634765625 513.7000732421875Q416.2008056640625 513.2000732421875 430.000732421875 513.2000732421875Q451.0006103515625 513.2000732421875 471.70074462890625 514.2000732421875Q492.40087890625 515.2000732421875 506.4007568359375 516.60009765625ZM290.6015625 8.600830078125 253.4013671875 -92Q243.8013916015625 -117 233.3013916015625 -134.4000244140625Q222.8013916015625 -151.800048828125 210.0013427734375 -162.800048828125Q195.201416015625 -175.7999267578125 173.40142822265625 -181.89996337890625Q151.6014404296875 -188 126.0009765625 -188Q103.4007568359375 -188 81.5003662109375 -180.199951171875Q59.5999755859375 -172.39990234375 45.19964599609375 -156.0997314453125Q30.79931640625 -139.799560546875 30.79931640625 -114.399169921875Q30.79931640625 -85.9989013671875 49.9996337890625 -68.89874267578125Q69.199951171875 -51.798583984375 101.8004150390625 -51.798583984375Q130.8009033203125 -51.798583984375 149.60113525390625 -66.39874267578125Q168.4013671875 -80.9989013671875 168.4013671875 -109.5992431640625Q168.4013671875 -128.599365234375 157.40118408203125 -143.9996337890625Q146.4010009765625 -159.39990234375 126.200439453125 -167.4000244140625Q130.6005859375 -168.4000244140625 135.50079345703125 -168.60003662109375Q140.4010009765625 -168.800048828125 143.401123046875 -168.800048828125Q172.4012451171875 -168.800048828125 195.0013427734375 -149.9000244140625Q217.6014404296875 -131 232.4013671875 -90L268.0013427734375 9.400390625Z" fill="#1F5C3D" transform="translate(40.0,198.4) translate(297.00,0.00) scale(0.20000,-0.20000)"/>
      <path d="M377.8011474609375 530.60009765625Q417.201416015625 530.60009765625 443.40142822265625 520.0000610351562Q469.6014404296875 509.4000244140625 485.4013671875 491.800048828125Q502.80126953125 472.60009765625 509.80126953125 441.400146484375Q516.80126953125 410.2001953125 516.80126953125 361.60009765625V93Q516.80126953125 51 531.3010864257812 36.0Q545.8009033203125 21 580.800537109375 21V0Q563.00048828125 1 527.0004272460938 2.5Q491.0003662109375 4 456.80029296875 4Q421.400146484375 4 387.70001220703125 2.5Q353.9998779296875 1 336.7998046875 0V21Q366.3994140625 21 378.5992431640625 36.0Q390.799072265625 51 390.799072265625 93V396.40087890625Q390.799072265625 423.400634765625 386.799072265625 444.600341796875Q382.799072265625 465.800048828125 369.79925537109375 478.1998291015625Q356.7994384765625 490.599609375 329.5999755859375 490.599609375Q299.00048828125 490.599609375 274.100830078125 472.5999755859375Q249.201171875 454.600341796875 234.5013427734375 423.1009521484375Q219.801513671875 391.6015625 219.801513671875 352.602294921875V93Q219.801513671875 51 232.0013427734375 36.0Q244.201171875 21 273.80078125 21V0Q257.4007568359375 1 224.70068359375 2.5Q192.0006103515625 4 157.800537109375 4Q121.2003173828125 4 83.0001220703125 2.5Q44.7999267578125 1 25.7998046875 0V21Q62.799560546875 21 78.2994384765625 36.0Q93.79931640625 51 93.79931640625 93V407.60009765625Q93.79931640625 452.60009765625 79.3994140625 474.10009765625Q64.99951171875 495.60009765625 25.7998046875 495.60009765625V516.60009765625Q57.7998046875 513.60009765625 87.7998046875 513.60009765625Q125.2003173828125 513.60009765625 158.500732421875 517.10009765625Q191.8011474609375 520.60009765625 219.801513671875 527.60009765625V428.001220703125Q244.6014404296875 483.0006103515625 286.80126953125 506.80035400390625Q329.0010986328125 530.60009765625 377.8011474609375 530.60009765625ZM678.8011474609375 530.60009765625Q718.201416015625 530.60009765625 744.4014282226562 520.0000610351562Q770.6014404296875 509.4000244140625 786.4013671875 491.800048828125Q803.80126953125 472.60009765625 810.80126953125 441.400146484375Q817.80126953125 410.2001953125 817.80126953125 361.60009765625V93Q817.80126953125 51 833.3011474609375 36.0Q848.801025390625 21 885.80078125 21V0Q867.6007080078125 1 830.4005737304688 2.5Q793.200439453125 4 757.80029296875 4Q722.400146484375 4 688.7000122070312 2.5Q654.9998779296875 1 637.7998046875 0V21Q667.3994140625 21 679.5992431640625 36.0Q691.799072265625 51 691.799072265625 93V396.40087890625Q691.799072265625 423.400634765625 687.3990478515625 444.600341796875Q682.9990234375 465.800048828125 669.1991577148438 478.1998291015625Q655.3992919921875 490.599609375 626.5997314453125 490.599609375Q596.000244140625 490.599609375 571.1005859375 471.7999267578125Q546.200927734375 453.000244140625 531.5010986328125 421.40081787109375Q516.80126953125 389.8013916015625 516.001220703125 350.8021240234375L511.401123046875 422.600830078125Q538.401123046875 485.200439453125 583.4010620117188 507.9002685546875Q628.4010009765625 530.60009765625 678.8011474609375 530.60009765625Z" fill="#1F5C3D" transform="translate(40.0,198.4) translate(399.80,0.00) scale(0.20000,-0.20000)"/>
      <path d="M164.9996337890625 -7Q121.5994873046875 -7 91.5994873046875 9.50006103515625Q61.5994873046875 26.0001220703125 46.8995361328125 54.400146484375Q32.1995849609375 82.8001708984375 32.1995849609375 117.800048828125Q32.1995849609375 161 52.09954833984375 188.39996337890625Q71.99951171875 215.7999267578125 103.39947509765625 232.59991455078125Q134.7994384765625 249.39990234375 169.69940185546875 260.69989013671875Q204.599365234375 271.9998779296875 235.99932861328125 282.4998779296875Q267.3992919921875 292.9998779296875 287.29925537109375 307.19989013671875Q307.19921875 321.39990234375 307.19921875 344.39990234375V417.2005615234375Q307.19921875 448.7999267578125 297.4993896484375 469.599853515625Q287.799560546875 490.3997802734375 269.19970703125 500.49993896484375Q250.599853515625 510.60009765625 222.999755859375 510.60009765625Q201.5999755859375 510.60009765625 178.7003173828125 504.60015869140625Q155.8006591796875 498.6002197265625 141.2008056640625 482.2005615234375Q166.6011962890625 474.600341796875 181.4012451171875 455.60015869140625Q196.2012939453125 436.5999755859375 196.2012939453125 410.39990234375Q196.2012939453125 379.3995361328125 175.4010009765625 361.49932861328125Q154.6007080078125 343.59912109375 124.400390625 343.59912109375Q91.0001220703125 343.59912109375 74.09991455078125 364.69927978515625Q57.19970703125 385.7994384765625 57.19970703125 414.3997802734375Q57.19970703125 442.39990234375 71.19976806640625 460.60003662109375Q85.1998291015625 478.8001708984375 109.60009765625 494.4002685546875Q135.4002685546875 510.80029296875 174.10040283203125 520.7001953125Q212.800537109375 530.60009765625 258.800537109375 530.60009765625Q303.000732421875 530.60009765625 337.2010498046875 521.10009765625Q371.4013671875 511.60009765625 394.8016357421875 488.3997802734375Q418.801513671875 465.1998291015625 426.00146484375 431.29986572265625Q433.201416015625 397.39990234375 433.201416015625 347.7998046875V73.800048828125Q433.201416015625 48.800048828125 439.101318359375 38.60009765625Q445.001220703125 28.400146484375 458.2010498046875 28.400146484375Q468.0009765625 28.400146484375 477.00091552734375 33.400146484375Q486.0008544921875 38.400146484375 497.20068359375 47L507.8006591796875 30Q486.400634765625 12.7999267578125 462.00030517578125 2.89996337890625Q437.5999755859375 -7 403.9998779296875 -7Q369.3995361328125 -7 348.59942626953125 3.20001220703125Q327.79931640625 13.4000244140625 318.29931640625 32.0999755859375Q308.79931640625 50.7999267578125 308.3992919921875 76.7996826171875Q283.7994384765625 36.5999755859375 248.6995849609375 14.79998779296875Q213.5997314453125 -7 164.9996337890625 -7ZM224.60107421875 49.0009765625Q248.800537109375 49.0009765625 269.300048828125 61.80059814453125Q289.799560546875 74.6002197265625 307.19921875 101.3995361328125V303.39990234375Q297.1993408203125 288 278.79962158203125 276.0999755859375Q260.39990234375 264.199951171875 239.4002685546875 252.09991455078125Q218.400634765625 239.9998779296875 199.5009765625 224.69989013671875Q180.601318359375 209.39990234375 168.40155029296875 186.60003662109375Q156.2017822265625 163.8001708984375 156.2017822265625 129.4005126953125Q156.2017822265625 90.2005615234375 174.901611328125 69.60076904296875Q193.6014404296875 49.0009765625 224.60107421875 49.0009765625Z" fill="#1F5C3D" transform="translate(40.0,198.4) translate(579.60,0.00) scale(0.20000,-0.20000)"/>
      <path d="M358.401123046875 530.60009765625Q389.0013427734375 530.60009765625 409.30133056640625 517.7999877929688Q429.601318359375 504.9998779296875 439.70123291015625 485.0997314453125Q449.8011474609375 465.1995849609375 449.8011474609375 442.799560546875Q449.8011474609375 409.799072265625 430.3009033203125 387.79888916015625Q410.8006591796875 365.7987060546875 378.80029296875 365.7987060546875Q348.5997314453125 365.7987060546875 329.99957275390625 381.89886474609375Q311.3994140625 397.9990234375 311.3994140625 425.7991943359375Q311.3994140625 450.799560546875 323.49951171875 467.69976806640625Q335.599609375 484.5999755859375 352.1998291015625 495.400146484375Q340.799560546875 501.39990234375 326.799560546875 498.5997314453125Q303.4000244140625 496.599609375 283.400390625 481.89984130859375Q263.4007568359375 467.2000732421875 249.4010009765625 445.20050048828125Q235.4012451171875 423.200927734375 227.60137939453125 398.10137939453125Q219.801513671875 373.0018310546875 219.801513671875 350.2021484375V103Q219.801513671875 54.4000244140625 244.90130615234375 37.70001220703125Q270.0010986328125 21 317.801025390625 21V0Q294.801025390625 1 251.40093994140625 2.5Q208.0008544921875 4 160.600830078125 4Q122.2005615234375 4 83.70025634765625 2.5Q45.199951171875 1 25.7998046875 0V21Q62.799560546875 21 78.2994384765625 36.0Q93.79931640625 51 93.79931640625 93V407.60009765625Q93.79931640625 452.60009765625 79.3994140625 474.10009765625Q64.99951171875 495.60009765625 25.7998046875 495.60009765625V516.60009765625Q57.7998046875 513.60009765625 87.7998046875 513.60009765625Q125.2003173828125 513.60009765625 158.500732421875 517.10009765625Q191.8011474609375 520.60009765625 219.801513671875 527.60009765625V423.8013916015625Q231.6015625 451.601318359375 251.50152587890625 475.9010009765625Q271.4014892578125 500.20068359375 298.60137939453125 515.400390625Q325.80126953125 530.60009765625 358.401123046875 530.60009765625Z" fill="#1F5C3D" transform="translate(40.0,198.4) translate(681.80,0.00) scale(0.20000,-0.20000)"/>
  </g>
  <circle cx="838.0" cy="197.0" r="14.4" fill="#E8775B"/>
</svg>